<?xml version="1.0" standalone="no"?>
<!DOCTYPE svg PUBLIC "-//W3C//DTD SVG 20010904//EN"
 "http://www.w3.org/TR/2001/REC-SVG-20010904/DTD/svg10.dtd">
<svg version="1.0" xmlns="http://www.w3.org/2000/svg"
 width="160.000000pt" height="160.000000pt" viewBox="0 0 160.000000 160.000000"
 preserveAspectRatio="xMidYMid meet">
<metadata>
Created by potrace 1.14, written by Peter Selinger 2001-2017
</metadata>
<g transform="translate(0.000000,160.000000) scale(0.100000,-0.100000)"
fill="#000000" stroke="none">
<path d="M1077 1424 c-1 -1 -33 -5 -71 -9 -39 -3 -77 -10 -87 -15 -9 -5 -19
-7 -21 -4 -3 2 -26 0 -52 -6 -44 -10 -74 -15 -141 -25 -16 -2 -43 -7 -60 -10
-16 -3 -46 -8 -65 -11 -38 -6 -70 -29 -70 -50 0 -16 44 -60 219 -224 68 -63
133 -124 145 -135 95 -91 255 -162 356 -158 48 2 95 8 95 13 0 1 7 3 16 5 9 1
34 14 55 28 230 144 183 485 -78 571 -64 21 -228 42 -241 30z"/>
<path d="M176 1115 c-9 -9 -16 -22 -17 -28 -1 -7 -2 -23 -4 -37 -1 -14 -6 -63
-10 -110 -4 -47 -9 -98 -10 -115 -2 -16 -6 -66 -9 -110 -4 -44 -8 -92 -10
-108 -2 -15 1 -30 6 -33 4 -3 6 -9 3 -14 -10 -16 23 -146 49 -197 49 -98 158
-166 266 -166 55 0 150 40 193 81 45 42 79 119 85 188 7 90 -26 179 -102 279
-40 52 -65 76 -319 306 -27 24 -62 52 -77 62 -26 16 -29 16 -44 2z"/>
<path d="M911 700 c-12 -7 -12 -16 4 -140 3 -19 7 -55 10 -80 19 -155 24 -186
41 -244 30 -105 105 -187 184 -201 19 -3 36 -8 39 -10 4 -2 27 1 53 5 102 19
175 101 185 205 12 126 -51 200 -302 356 -186 116 -196 121 -214 109z"/>
</g>
</svg>
